<mxfile host="app.diagrams.net" modified="2023-05-04T22:44:31.585Z" agent="Mozilla/5.0 (Windows NT 10.0; Win64; x64) AppleWebKit/537.36 (KHTML, like Gecko) Chrome/112.0.0.0 Safari/537.36 OPR/98.0.0.0" version="21.2.9" etag="enXv2ycRi5YdvKP2yRqr" type="github">
  <diagram name="PÃ¡gina-1" id="PB6TV0jYUR4c-nscDG0A">
    <mxGraphModel>
      <root>
        <mxCell id="0" />
        <mxCell id="1" parent="0" />
      </root>
    </mxGraphModel>
  </diagram>
</mxfile>
